@startuml
skinparam monochrome true
skinparam packageStyle rectangle
skinparam shadowing false

left to right direction


hide circle
hide methods
class House{
      numberOfRooms;
      numberOfBathrooms;
      numberOfFloors;
      numberOfGarages;
     List<String> equipments;
     boolean hasBasement;
     boolean hasLoft;
     boolean hasSunExposure;


}

class Land{
    area

}

class Apartment{
     numberOfRooms;
      numberOfBathrooms;
      numberOfFloors;
      numberOfGarages;
     List<String> equipments;

}

abstract class User{
   - name
   - descriptions
  -  tax number
  -  address
  -  email address
  -  phone number
  -  password
}

abstract class Property{
     name;
      type;
      address;
      description;
      isForSale;
      isForRent;
}


class Store {
    - branchNumber : int
    - designation
    - address
    - phone
    - email
    - vatNumber
    - manager
}

class EmployeeProject{

}

enum ROLE{
    - NETWORK_MANAGER
}

House --|> Property
Land --|> Property
Apartment --|> Property

Store "1" --"*" Property : has >
EmployeeProject --|> User
EmployeeProject "1"-->"1" ROLE : has role >
EmployeeProject "1"-->"*" Store : > knows



@enduml