@startuml
'skinparam monochrome true
skinparam packageStyle rectangle
skinparam shadowing false
skinparam linetype polyline
'skinparam linetype orto

skinparam classAttributeIconSize "2"
'left to right direction
class Repositories {
    - Repositories()
    + getInstance() : Repositories
    + getStoreRepository()
}
class StoreRepository{

}


class CreateEmployeeUI{
}

class CreateEmployeeController{
    + CreateEmployeeController(StoreRepository)
    + createEmployee(name,descriptions,tax number,address\n,email address,phone number,password,store,roles)
}

class user{
    - name
    - descriptions
    - tax number
    - address
    - email address
    - phone number
    - password
    - roles

}
enum roles{

}
class RealEstate {
    - name
    - address
    - descriptions
    - website
    - phoneNumber
    - email
    - vatNumber

}

class Employee extends user{
    -salary
}

class Administrator extends user{

}
class Store {
    - name
    - vatNumber
    - address
    - phoneNumber
    - email
    - branchNumber
}
class StoreNetWork{
    + createStore(ID, designation/name, \n location, phone number, e-mail)
    + validate(store)
    + addStore(store)
    - String name
    - String address
}
Store "1" -- "0..*" Employee : has >
StoreNetWork "1" -- "0..*" Store : has >
RealEstate "1" -- "1" StoreNetWork : has >
user "1"--"1..*" roles : has >
CreateEmployeeController .> Repositories : repositories
CreateEmployeeUI .> CreateEmployeeController
Administrator --> Employee : createdBy
CreateEmployeeController ..> "1" Store : Store
Repositories "1" --> "*" StoreRepository : has >
StoreRepository "1" --> "*" Store : has >
@enduml