@startuml
'skinparam monochrome true
skinparam packageStyle rectangle
skinparam shadowing false
skinparam linetype polyline
'skinparam linetype orto

class Employee extends User{
    -salary
}
enum Roles{

}
class User{
    - name
    - descriptions
    - tax number
    - address
    - email address
    - phone number
    - password
    - roles

}

class Repositories {
    - Repositories()
    + getInstance() : Repositories
    + getStoreRepository()
}

class CreateStoreUI{
}
class CreateStoreController{
    + CreateStoreController()
    + getStoreNetWork()
    + createStore(designation, phoneNumber, \n e-mail, vatNumber, address,branchNumber)
    + getStoreRepository()
}
'left to right direction

class RealEstate{
    - String name
    - String address
    - String descriptions
    - String website
    - String phoneNumber
    - String e-mail
    - String vatNumber
}
class StoreNetWork{
    + createStore(designation, phoneNumber, \n e-mail, vatNumber, address,branchNumber)
    + addStore(store)
    - String name
    - String address
    - int branchNumber
    - StoreRepository repository
}
class Administrator{
}


class Store{
    + Store(designation, phoneNumber, \n e-mail, vatNumber, address,branchNumber)
    + validate()
    - Int branchNumber
    - String designation
    - String address
    - String phoneNumber
    - String e-mail
    - String vatNumber
    - Employee manager

}

class StoreRepository{
    - List<Store> storeList
    + validate(store)

}

RealEstate "1" --"1" StoreNetWork : > has
CreateStoreUI ..> CreateStoreController
CreateStoreController ..> StoreNetWork
Repositories "1"--"1" StoreRepository : > has
StoreRepository "1"--"*" Store : > has


Administrator --|> User
User "1"--"1..*" Roles
Administrator "1"--"*" Store : > Creates
StoreNetWork "1"--"1" StoreRepository : > has
Store "1"--"0..*" Employee : > has

@enduml